<?xml version="1.0" encoding="UTF-8"?>
<svg xmlns="http://www.w3.org/2000/svg" xmlns:xlink="http://www.w3.org/1999/xlink" viewBox="0 0 457.67 218.27">
  <defs>
    <style>
      .cls-1 {
        fill: #a1242d;
        opacity: .36;
      }

      .cls-1, .cls-2, .cls-3, .cls-4, .cls-5, .cls-6, .cls-7, .cls-8, .cls-9 {
        mix-blend-mode: multiply;
      }

      .cls-2 {
        fill: url(#Dégradé_sans_nom_25);
      }

      .cls-2, .cls-6 {
        opacity: .32;
      }

      .cls-3 {
        fill: url(#Dégradé_sans_nom_15);
        opacity: .66;
      }

      .cls-4 {
        fill: url(#Dégradé_sans_nom_21-2);
        opacity: .52;
      }

      .cls-5 {
        fill: url(#Dégradé_sans_nom_21-3);
        opacity: .46;
      }

      .cls-6 {
        fill: url(#Dégradé_sans_nom_29-2);
      }

      .cls-7 {
        fill: #571459;
        opacity: .3;
      }

      .cls-8 {
        opacity: .17;
      }

      .cls-8, .cls-9 {
        fill: #e40138;
      }

      .cls-9 {
        opacity: .19;
      }

      .cls-10 {
        isolation: isolate;
      }

      .cls-11 {
        fill: #9b336f;
      }

      .cls-12 {
        fill: url(#Dégradé_sans_nom_17);
      }

      .cls-13 {
        fill: url(#Dégradé_sans_nom_40);
      }

      .cls-14 {
        fill: url(#Dégradé_sans_nom_29);
      }

      .cls-15 {
        fill: url(#Dégradé_sans_nom_33);
      }

      .cls-16 {
        fill: url(#Dégradé_sans_nom_23);
      }

      .cls-17 {
        fill: url(#Dégradé_sans_nom_21);
      }

      .cls-18 {
        fill: #005892;
      }

      .cls-19 {
        fill: url(#Dégradé_sans_nom_23-2);
      }

      .cls-20 {
        fill: url(#Dégradé_sans_nom_33-2);
      }
    </style>
    <linearGradient id="Dégradé_sans_nom_23" data-name="Dégradé sans nom 23" x1="101.37" y1="39.61" x2="101.37" y2="213.94" gradientUnits="userSpaceOnUse">
      <stop offset="0" stop-color="#3e87bb"/>
      <stop offset="1" stop-color="#003d6a"/>
    </linearGradient>
    <linearGradient id="Dégradé_sans_nom_23-2" data-name="Dégradé sans nom 23" x1="82.85" y1="39.61" x2="82.85" y2="213.94" xlink:href="#Dégradé_sans_nom_23"/>
    <linearGradient id="Dégradé_sans_nom_25" data-name="Dégradé sans nom 25" x1="113.49" y1="54.09" x2="64.97" y2="208.64" gradientUnits="userSpaceOnUse">
      <stop offset="0" stop-color="#3e87bb"/>
      <stop offset=".24" stop-color="#286d9f"/>
      <stop offset=".54" stop-color="#125282"/>
      <stop offset=".81" stop-color="#044270"/>
      <stop offset="1" stop-color="#003d6a"/>
    </linearGradient>
    <linearGradient id="Dégradé_sans_nom_29" data-name="Dégradé sans nom 29" x1="7.08" y1="40.29" x2="70.38" y2="95.48" gradientUnits="userSpaceOnUse">
      <stop offset="0" stop-color="#8abd24"/>
      <stop offset="1" stop-color="#328d2e"/>
    </linearGradient>
    <linearGradient id="Dégradé_sans_nom_29-2" data-name="Dégradé sans nom 29" x1="-21.57" y1="34.53" x2="61.46" y2="78.75" xlink:href="#Dégradé_sans_nom_29"/>
    <linearGradient id="Dégradé_sans_nom_21" data-name="Dégradé sans nom 21" x1="136.62" y1="58.41" x2="142.01" y2="125.99" gradientUnits="userSpaceOnUse">
      <stop offset="0" stop-color="#b50156"/>
      <stop offset="1" stop-color="#571459"/>
    </linearGradient>
    <linearGradient id="Dégradé_sans_nom_21-2" data-name="Dégradé sans nom 21" x1="126.07" y1="48.66" x2="119.23" y2="116.64" xlink:href="#Dégradé_sans_nom_21"/>
    <linearGradient id="Dégradé_sans_nom_21-3" data-name="Dégradé sans nom 21" x1="158.04" y1="47.47" x2="158.04" y2="120.27" xlink:href="#Dégradé_sans_nom_21"/>
    <linearGradient id="Dégradé_sans_nom_17" data-name="Dégradé sans nom 17" x1="220.7" y1="132.39" x2="232.79" y2="216.23" gradientUnits="userSpaceOnUse">
      <stop offset="0" stop-color="#e40138"/>
      <stop offset="1" stop-color="#a1242d"/>
    </linearGradient>
    <linearGradient id="Dégradé_sans_nom_33" data-name="Dégradé sans nom 33" x1="191.4" y1="12.31" x2="191.4" y2="212.01" gradientUnits="userSpaceOnUse">
      <stop offset="0" stop-color="#fbba00"/>
      <stop offset=".2" stop-color="#f7a402"/>
      <stop offset=".74" stop-color="#ed6d09"/>
      <stop offset="1" stop-color="#ea580c"/>
    </linearGradient>
    <linearGradient id="Dégradé_sans_nom_15" data-name="Dégradé sans nom 15" x1="149.54" y1="56.16" x2="194.47" y2="210.71" gradientUnits="userSpaceOnUse">
      <stop offset="0" stop-color="#fbba00"/>
      <stop offset="1" stop-color="#ea580c"/>
    </linearGradient>
    <linearGradient id="Dégradé_sans_nom_33-2" data-name="Dégradé sans nom 33" x1="205.41" y1="12.31" x2="205.41" y2="212.01" xlink:href="#Dégradé_sans_nom_33"/>
    <linearGradient id="Dégradé_sans_nom_40" data-name="Dégradé sans nom 40" x1="230.13" y1="43.96" x2="217.11" y2="-5.65" gradientUnits="userSpaceOnUse">
      <stop offset="0" stop-color="#ea580c"/>
      <stop offset=".05" stop-color="#ec640a"/>
      <stop offset=".18" stop-color="#f18306"/>
      <stop offset=".32" stop-color="#f59b03"/>
      <stop offset=".47" stop-color="#f8ac01"/>
      <stop offset=".63" stop-color="#fab600"/>
      <stop offset=".82" stop-color="#fbba00"/>
    </linearGradient>
  </defs>
  <g class="cls-10">
    <g id="Calque_2" data-name="Calque 2">
      <g id="Calque_2-2" data-name="Calque 2">
        <g>
          <g>
            <path class="cls-8" d="M231.66,110.96c-.8,3.38-2.15,6.62-3.68,11.18,6.65-7.05,10.44-14.52,12.11-22.54-1.77.75-4.07,1.54-7.03,2.24-.39,3.05-.7,6.13-1.4,9.11Z"/>
            <g>
              <path class="cls-16" d="M105.25,136.26c-7.26,10.19-15.89,19.09-25.38,27.07-4.79,4.03-6.57,8.17-5.12,14.23,2.78,11.66,5.18,23.42,7.81,35.12.62,2.77,2.38,4.7,5.36,4.71,5.7.02,11.4-.13,17.09-.36,2.87-.12,3.35-2.34,2.66-4.43-1.45-4.4-3.46-8.13-9.14-8.46-3.66-.22-2.97-4.21-3.64-6.6-4.38-15.57,1.51-26.73,14.48-35.7,9.86-6.82,17.03-20.65,19.12-32.88-9.92-3.17-17.26-1.1-23.24,7.3Z"/>
              <path class="cls-19" d="M129.86,66.03c-.42-.04-.84-.07-1.27-.12-14.72-1.54-28.65,1.32-42.45,5.14-5.9,3.66-10.43,9.15-10.43,9.15-.01,0-.02.02-.04.03l.04.04c-9.26,11.37-13.41,23.71-15.12,36.89-1.32,10.23-2.2,20.51-6.56,30.06-2.47,5.42-5.83,10.26-10.55,13.89-3.11,2.39-4.38,5.13-4.39,9.02-.02,11.94-1.14,23.8-2.89,35.62-1.41,9.52.78,11.88,10.35,11.7,2.47-.05,4.96.14,7.42-.08,2.67-.25,6.56,1.48,7.46-2.39,1.02-4.39-1.23-8.38-5.36-9.88-3.5-1.27-2.98-3.28-2.97-5.85.06-17.96,8.26-31.04,23-40.98,9.08-6.12,16.18-14.56,22.54-23.54,3.07-4.34,6.3-7.59,9.82-9.78,1.19-1.62,2.31-3.28,3.39-4.96,5.04-7.84,9.26-16.27,12.49-25.01,3.4-9.22,5.76-19.06,5.51-28.94Z"/>
              <path class="cls-2" d="M41.17,217.13c1.45.27,3.23.36,5.39.32,2.47-.05,4.96.14,7.42-.08,2.67-.25,6.56,1.48,7.46-2.39,1.02-4.39-1.23-8.38-5.36-9.88-3.5-1.27-2.98-3.28-2.97-5.85.06-17.96,8.26-31.04,23-40.98,9.08-6.12,16.18-14.56,22.54-23.54,3.07-4.34,6.3-7.59,9.82-9.78,1.19-1.62,2.31-3.28,3.39-4.96,5.04-7.84,9.26-16.27,12.49-25.01,3.4-9.22,5.76-19.06,5.51-28.94-.42-.04-.84-.07-1.27-.12-3.94-.41-7.83-.51-11.67-.36,0,0-5.33,31.58-30.23,61.78-3.25,3.95-29.41,29.54-34.84,47.16,0,0-6.49,19.74-10.68,42.63Z"/>
            </g>
            <g>
              <path class="cls-14" d="M71.51,75.25c-19.13,5.65-37.61,5.54-53.49-8.9-5.83-5.3-9-12.43-12.42-19.35-.56-1.13-1.37-2.13-2.09-3.22-5.89,5.16-4.19,19.07,3.61,29.61-.7.04-1.21.07-3.43.19,9.78,7.51,14.09,20.11,28.66,19.6-1,1.12-1.6,1.8-2.44,2.73,4.36,1.68,8.4,1.14,12.79-.43-.44,1.3-.69,2.07-1.09,3.26,5.69-.98,15.74.3,21.13-1.36,1.91-.59,2.41-1.97,3.13-3.32,3.22-6.02,4.44-9.57,9.85-13.87,0,0,4.54-5.5,10.45-9.17l-14.66,4.21Z"/>
              <path class="cls-6" d="M3.52,43.78c.71,1.08,1.53,2.09,2.09,3.22,3.42,6.92,6.58,14.05,12.42,19.35,15.87,14.43,34.35,14.54,53.49,8.9l14.66-4.21c-5.91,3.66-10.45,9.17-10.45,9.17-2.52,1.97-4.3,3.94-5.92,6.61-.78,1.28-6.87,1.24-10.34,1.18-5.93-.11-11.3-.72-17.38-1.63-20.98-3.16-38.04-20.87-38.56-42.57Z"/>
            </g>
            <g>
              <path class="cls-17" d="M161.14,87.81c-5.39-8.15-12.25-15.2-19.76-21.41-3.54.1-7.09,0-10.65-.29.07,5.2-.57,10.4-1.7,15.48-2.18,9.86-6.02,19.34-10.71,28.26-2.63,4.99-5.52,10.01-8.94,14.57,7.6-4.28,16.57-3.81,28.27,1.04,9.09,3.77,16.79,7.42,26.13,10.51,1.49.49,4.45,1.02,5.95,1.16,1.21.11,4.29.29,5.43.35-.09-6.74-.69-13.47-2.01-20.09-2.1-10.52-6.07-20.62-12.01-29.58Z"/>
              <path class="cls-7" d="M109.38,124.41c7.6-4.28,16.57-3.81,28.27,1.04,9.09,3.77,16.79,7.42,26.13,10.51,1.49.49,4.45,1.02,5.95,1.16,1.21.11,4.29.29,5.43.35-.09-6.74-.69-13.47-2.01-20.09-1.19-5.97-3.01-11.79-5.42-17.35-26.61-2.71-39.65-1.74-44.26-1.14-1.55,3.73-3.28,7.38-5.15,10.94-2.63,4.99-5.52,10.01-8.94,14.57Z"/>
              <path class="cls-4" d="M109.38,124.41c3.41-4.56,6.31-9.57,8.94-14.57,4.69-8.92,8.53-18.4,10.71-28.26,1.12-5.08,1.77-10.27,1.7-15.48l1.61.12s2.23,15.92-7.12,37.85c-6.81,15.97-5.75,17.43-5.75,17.43,0,0-4.91-.13-10.09,2.9Z"/>
              <path class="cls-5" d="M169.73,137.13c1.21.11,4.29.29,5.43.35-.09-6.74-.69-13.47-2.01-20.09-2.1-10.52-6.07-20.62-12.01-29.58-5.39-8.15-12.25-15.2-19.76-21.41-.15,0-.31,0-.46.01,2.53,3.11,4.9,6.37,7.2,9.65,4.65,6.64,9.01,13.57,12.42,20.94,4.04,8.73,5.4,18.15,6.31,27.65.38,4.02.67,8.08.57,12.12l2.31.36Z"/>
            </g>
            <g>
              <path class="cls-12" d="M231.79,124.39c-6.66,8.25-14.14,14.08-22.97,18.42-4.59,2.25-3.3,7.56-3.43,11.22,1.09,16.3,15.14,31.87,16.7,48.28.56,5.85,1.96,9.09,4.9,14.48.06,1.47,22.56,1.17,23.47-.29,2.01-3.23-2.2-11.83-6.62-11.96-6.22-.17-6.71-5.63-7.01-9.46-1.79-23.6-12.41-45.5-5.34-68.25.18-.58.15-1.22.29-2.44Z"/>
              <path class="cls-1" d="M250.46,216.5c-.9,1.46-23.41,1.76-23.47.29-2.94-5.38-4.35-8.62-4.9-14.48-1.56-16.41-15.62-31.98-16.7-48.28.13-3.67-1.15-8.97,3.43-11.22,3.08-1.51,6-3.21,8.77-5.13,0,0-3.25,26.95,19.72,62.37,0,0,.47.66.9,1.34.43.68,1.61,2.65,4.12,2.98,2.51.33,3.47-.09,6.29,3.44,0,0,3.64,5.13,1.84,8.68Z"/>
            </g>
            <g>
              <path class="cls-15" d="M227.97,122.14c6.73-7.13,10.52-14.7,12.16-22.82-9.11.39-18.58-2.65-26.52-6.17-17.16-7.62-34.12-19.45-49.16-30.44-7.16,2.13-14.44,3.32-21.79,3.64,3.81,3.21,7.46,6.62,10.8,10.32,6.8,7.51,12.28,16.14,15.94,25.6,4.33,11.22,6.05,23.25,6.15,35.25.22,1.45.01,3.11.02,4.57.01,3.2-.04,6.38-.03,9.58.01,4.54.11,9.07.3,13.61.1,2.45.23,4.9.38,7.35.39,6.28.96,12.55,1.69,18.79.35,2.99.65,5.97,1.09,8.94.23,1.58.49,3.16.77,4.74.25,1.42.89,3.09.89,4.52,1.18,5.5,3.1,8.86,9.47,8.14,4.58-.52,9.24-.3,13.86-.46,4.13-.14,4.13-2.55,2.83-5.48-1.56-3.51-3.65-6.5-7.56-7.84-2.01-.69-2.38-2.92-2.62-4.51-3.7-24.71.5-48.96,10.34-72.3.22-.53.71-.96,1.25-1.66-.79,4.17-1.52,8.02-2.26,11.98,9.28-1.81,23.86-20.33,27.28-37.08-.51,3.52-.78,7.11-1.59,10.56-.8,3.38-2.15,6.62-3.68,11.18Z"/>
              <path class="cls-8" d="M175.56,137.52c-.1-12-1.81-24.03-6.15-35.25-.28-.72-.59-1.43-.89-2.15,5.03.52,10.54,1.17,16.55,1.98,23.88,3.21,38.83,1.91,47.84-.22-3.95,16.34-17.94,33.85-26.95,35.6.75-3.95,1.47-7.8,2.26-11.98-.54.71-1.02,1.13-1.25,1.66-1.55,3.67-2.95,7.37-4.21,11.09,0,0-11.67,1.72-27.22-.74Z"/>
              <path class="cls-3" d="M199.26,203.98c-2.01-.69-2.38-2.92-2.62-4.51-.02-.11-.03-.22-.04-.33-.47-2.97-1.25-9.39-1.25-9.39-1.78-13.55-4.11-27.02-6.81-40.42-1.92-9.49-3.61-18.98-6.59-28.2s-6.86-18.04-11.6-26.43c-2.82-4.98-5.89-9.8-9.37-14.34-3.52-4.59-7.44-9.01-11.96-12.64-.71-.57-1.44-1.15-2.22-1.63-.16.01-.32.02-.48.03-1.21.1-2.42.19-3.64.24,3.81,3.21,7.46,6.62,10.8,10.32,6.8,7.51,12.28,16.14,15.94,25.6,4.33,11.22,6.05,23.25,6.15,35.25.22,1.45.01,3.11.02,4.57.01,3.2-.04,6.38-.03,9.58.01,4.54.11,9.07.3,13.61.1,2.45.23,4.9.38,7.35.39,6.28.96,12.55,1.69,18.79.35,2.99.65,5.97,1.09,8.94.23,1.58.49,3.16.77,4.74.25,1.42.89,3.09.89,4.52,1.18,5.5,3.1,8.86,9.47,8.14,4.58-.52,9.24-.3,13.86-.46,4.13-.14,4.13-2.55,2.83-5.48-1.56-3.51-3.65-6.5-7.56-7.84Z"/>
            </g>
            <g>
              <path class="cls-20" d="M242.12,89.53c.08-.39.16-.81.26-1.3l.19-1.68c.56-5.57.79-11.06.85-15.85.11-8.99-.38-15.52-.38-15.52.42-4.79-.38-10.32-1.3-16.45-5.8,6.64-12.53,8.57-19.02,11.02-10.36,3.91-16.65-1.27-15.2-12.32,1.37-10.48,10-17.73,11.8-28.67-.01-.02-.02-.04-.03-.06,0,0-5.58-7.73-10.51-8.69-5.46-.18-11.75.79-14.43,6.18-2.84,5.72-6.97,7.22-12.52,7.18-2.71-.02-5.42-.1-8.36-.16-2.59.14-2.28-.14-4.64,3.89-3.47,8.39-.49,16.7,7,21.18,7.26,4.34,14.74,8.18,22.56,11.9-1.51,1.23-4.86,2.73-7.71,3.95-4.4,1.51-7.47,1.81-10.88,2.81,5.95,4.38,11.91,8.74,18.16,12.68,13.78,8.68,28.39,15.79,44.17,19.91ZM198.11,13.88s2.36-3.83,4.44-3.4c2.09.43,5.61,7.03,5.61,7.03,0,0-1.43-1.31-2.27-1.93,0,0-3.72,2.91-6.38-1.9,0,0-.64-.35-1.4.2Z"/>
              <path class="cls-13" d="M219.29,8.71c2.73,4.86.84,8.54-.83,12.14-2.47,5.32-5.16,10.55-6.3,16.36-1.28,6.49,2.48,10.15,8.32,8,6.59-2.42,12.82-5.7,18.46-9.82,2.27-1.66,5.64-4.17,4.33-7.53-2.21-5.72-4.44-11.87-8.32-16.4C228.32,3.73,218.86.36,208.78.02c4.92.96,10.51,8.69,10.51,8.69Z"/>
              <path class="cls-9" d="M168.83,17.11c-3.47,8.39-.49,16.7,7,21.18,7.26,4.34,14.74,8.18,22.56,11.9-7.98-25.2-29.56-33.08-29.56-33.08Z"/>
              <path class="cls-8" d="M242.13,89.53c.03-.13.71-3.24.99-10.79-2.04,1.44-32.73-3.53-62.79-21.96-.05.02-.3.09-.53.15,5.95,4.38,11.91,8.74,18.16,12.68,13.78,8.68,28.39,15.79,44.18,19.91Z"/>
            </g>
            <path class="cls-18" d="M243.32,89.85c-16.24-4.07-31.25-11.33-45.37-20.23-13.72-8.64-26.05-19.36-39.94-27.71-13.99-8.41-29.19-14.68-44.61-19.95-4.91-1.68-7.2-.78-11.46,1.63-4.5,2.54-9.49,5.37-12.69,9.54-1.03,1.34-.87,3.15,1.08,3.54,17.71,3.54,35.83,11.4,49.71,22.98,2.59,2.16,10.18-1.39,7.4-3.71-13.75-11.46-31.19-19.65-48.76-23.75,2.53-2.19,5.62-3.91,8.61-5.42,11.82,4,23.45,8.56,34.56,14.28,11.38,5.86,21.39,13.32,31.7,20.82,19.87,14.45,41.08,27.24,65.12,33.27,3.21.81,9.52-4.06,4.65-5.29Z"/>
          </g>
          <g>
            <g>
              <g>
                <path class="cls-11" d="M275.55,217.71c-.84,0-1.29-.45-1.29-1.29v-36.62c0-.9.45-1.29,1.29-1.29h12.77c9.74,0,15.85,4.42,15.85,13.72s-6.66,13.33-14.62,13.33h-6.27v10.86c0,.84-.45,1.29-1.23,1.29h-6.5ZM287.93,198.44c4.65,0,7.17-2.13,7.17-6.22,0-3.81-2.35-6.55-7.5-6.55h-4.31v12.77h4.65Z"/>
                <path class="cls-11" d="M378.03,216.42c0,.5-.17.84-.95,1.18-.67.28-1.79.39-3.58.39-12.77.06-8.68-14.34-16.74-14.34h-2.97v12.77c0,.84-.45,1.29-1.23,1.29h-6.5c-.84,0-1.29-.45-1.29-1.29v-36.62c0-.84.45-1.29,1.29-1.29h12.99c10.08,0,15.34,3.58,15.34,12.6,0,5.77-3.86,8.79-6.44,9.91,3.53,3.53,3.53,9.58,8.34,9.63h.9c.62,0,.84.22.84,1.06v4.7ZM358.03,196.87c4.37,0,7.5-1.9,7.5-5.49s-2.58-5.71-6.89-5.71h-4.87v11.2h4.26Z"/>
                <path class="cls-11" d="M391.52,216.42c0,.84-.45,1.29-1.23,1.29h-6.5c-.84,0-1.29-.45-1.29-1.29v-36.62c0-.84.45-1.29,1.29-1.29h6.5c.78,0,1.23.45,1.23,1.29v36.62Z"/>
                <path class="cls-11" d="M422.54,189.2c-.95.62-1.46.5-1.74.11-.84-1.23-3.25-3.7-7.67-3.64-3.3-.06-5.26,1.46-5.32,3.64.06,7.5,19.99,2.41,19.99,17.36,0,5.54-4.14,11.37-14.9,11.37-10.14,0-14.5-5.21-15.79-7.39-.39-.56-.22-1.34.28-1.74l3.47-3.25c.45-.45,1.29-.67,1.79,0,1.34,1.62,4.76,5.1,10.25,5.1,3.42,0,5.43-1.51,5.43-3.86,0-8.4-20.27-2.18-20.27-17.47,0-6.05,5.15-11.26,14.39-11.26s13.27,4.65,14.5,6.72c.22.39.39,1.06-.5,1.62l-3.92,2.69Z"/>
              </g>
              <g>
                <path class="cls-11" d="M339.46,215.88h0c-2.48-3.65-4.68-7.53-6.56-11.55.87-.05,1.55-.73,1.55-1.55s-.75-1.56-1.66-1.56h-1.26c-1.09-2.62-2.05-5.32-2.84-8.02h.13c.92,0,1.66-.7,1.66-1.56s-.75-1.56-1.66-1.56h-.98c-1.56-6.23-2.36-12.58-2.36-18.91,0-.86-.75-1.56-1.66-1.56h-1.07v-1.71c0-.86-.75-1.56-1.66-1.56s-1.66.7-1.66,1.56v1.71h-.72c-.92,0-1.66.7-1.66,1.56s.75,1.56,1.66,1.56h3.48c.2,10.53,2.45,20.82,6.69,30.67,2.13,4.93,4.74,9.68,7.77,14.14.31.45.83.72,1.4.72.3,0,.59-.08.85-.22.39-.22.67-.58.77-1,.1-.41.02-.82-.22-1.17Z"/>
                <path class="cls-11" d="M332.98,215.09c-1.5-2.44-3.21-5.2-6.35-6.66h-.03c-3.27-1.5-7.15-1.51-10.44-.02l-.08.04c-3.11,1.45-4.82,4.21-6.33,6.65l-.52.83c-.22.36-.29.77-.18,1.18.11.41.41.77.8.98.75.4,1.8.13,2.24-.57l.53-.85c1.33-2.16,2.71-4.39,4.93-5.42,2.39-1.11,5.24-1.11,7.63,0l.04.02c2.2,1.04,3.57,3.25,4.89,5.4l.53.85c.3.47.84.77,1.43.77.28,0,.56-.07.8-.2.4-.21.69-.56.8-.98.11-.4.05-.82-.18-1.17l-.52-.83Z"/>
                <path class="cls-11" d="M323.97,204.33c.92,0,1.66-.7,1.66-1.56s-.75-1.56-1.66-1.56h-9.77c1.04-2.62,1.96-5.31,2.73-8.02h3.8c.92,0,1.66-.7,1.66-1.56s-.75-1.56-1.66-1.56h-2.98c1.19-4.9,1.92-9.87,2.17-14.79.02-.4-.12-.78-.39-1.08-.3-.33-.73-.53-1.2-.55-.93-.03-1.68.63-1.72,1.48-.26,4.98-1.02,10-2.26,14.94h-.98c-.92,0-1.66.7-1.66,1.56s.75,1.56,1.66,1.56h.12c-.81,2.74-1.76,5.43-2.83,8.02h-1.26c-.92,0-1.66.7-1.66,1.56s.69,1.5,1.55,1.55c-1.87,4.01-4.07,7.89-6.55,11.55-.24.35-.32.77-.22,1.17.1.42.38.78.77,1,.26.14.55.22.85.22.57,0,1.09-.27,1.4-.72,2.82-4.15,5.3-8.6,7.36-13.22h11.08Z"/>
              </g>
            </g>
            <g>
              <path class="cls-18" d="M284.65,148.92c0,6.44-4.37,14-15.18,14s-17.86-6.94-17.86-19.88,6.72-19.99,17.75-19.99c11.82,0,14.5,9.24,15.06,12.71.17.73-.34,1.12-1.18,1.23l-5.66.9c-1.12.17-1.46-.34-1.62-1.01-.28-1.62-1.29-5.88-6.55-5.88-4.98,0-8.46,3.86-8.46,12.04s3.86,11.93,8.74,11.93,6.55-3.14,6.55-6.05v-.39h-7c-.84,0-1.29-.45-1.29-1.29v-4.03c0-.84.45-1.29,1.29-1.29h14c.9,0,1.4.45,1.4,1.29v5.71Z"/>
              <path class="cls-18" d="M312.25,124.67c0-.84.45-1.29,1.29-1.29h6.44c.84,0,1.29.45,1.29,1.29v21.67c0,12.49-7,16.58-15.4,16.58s-15.57-4.09-15.57-16.58l.06-21.67c0-.78.45-1.29,1.34-1.29h6.44c.84,0,1.29.45,1.29,1.29v22.34c0,4.31,1.51,7.84,6.44,7.84s6.38-3.53,6.38-7.84v-22.34Z"/>
              <path class="cls-18" d="M337.5,161.29c0,.84-.45,1.29-1.23,1.29h-6.5c-.84,0-1.29-.45-1.29-1.29v-36.62c0-.84.45-1.29,1.29-1.29h6.5c.78,0,1.23.45,1.23,1.29v36.62Z"/>
              <path class="cls-18" d="M346.46,162.58c-.84,0-1.29-.45-1.29-1.29v-36.62c0-.84.45-1.29,1.29-1.29h10.75c10.25,0,19.66,5.49,19.66,20.33s-8.68,18.87-18.09,18.87h-12.32ZM358.73,155.41c5.43,0,9.3-4.14,9.3-11.82s-2.91-13.05-10.92-13.05h-2.91v24.86h4.54Z"/>
              <path class="cls-18" d="M384.04,162.58c-.78,0-1.29-.45-1.29-1.29v-36.62c0-.84.45-1.29,1.29-1.29h22.79c.78,0,1.29.45,1.29,1.29v4.65c0,.78-.45,1.23-1.29,1.23h-15.06v9.07h11.2c.78,0,1.29.45,1.29,1.29v4.54c0,.78-.5,1.23-1.29,1.23h-11.2v8.74h15.06c.84,0,1.29.45,1.29,1.23v4.65c0,.84-.5,1.29-1.29,1.29h-22.79Z"/>
              <path class="cls-18" d="M437.4,134.08c-.95.62-1.46.5-1.74.11-.84-1.23-3.25-3.7-7.67-3.64-3.3-.06-5.26,1.46-5.32,3.64.06,7.5,19.99,2.41,19.99,17.36,0,5.54-4.14,11.37-14.9,11.37-10.14,0-14.5-5.21-15.79-7.39-.39-.56-.22-1.34.28-1.74l3.47-3.25c.45-.45,1.29-.67,1.79,0,1.34,1.62,4.76,5.1,10.25,5.1,3.42,0,5.43-1.51,5.43-3.86,0-8.4-20.27-2.18-20.27-17.47,0-6.05,5.15-11.26,14.39-11.26s13.27,4.65,14.5,6.72c.22.39.39,1.06-.5,1.62l-3.92,2.69Z"/>
            </g>
            <g>
              <path class="cls-18" d="M296.35,101.2c.95,1.01.95,1.74.39,2.35-1.62,2.13-5.94,6.44-13.72,6.44-11.2,0-18.76-6.94-18.76-19.88s6.66-19.99,17.7-19.99c12.82,0,15.18,9.46,15.51,13.16.06.84-.34,1.18-1.18,1.29l-5.6.84c-1.12.17-1.46-.28-1.62-1.01-.39-2.07-1.74-6.33-7-6.33-4.98,0-8.51,3.86-8.51,12.04s4.76,11.93,9.91,11.93c3.7,0,6.5-2.41,7.9-3.86.62-.73,1.29-.9,1.96-.11l3.02,3.14Z"/>
              <path class="cls-18" d="M334.54,108.37c0,.84-.5,1.29-1.29,1.29h-6.5c-.78,0-1.23-.45-1.23-1.29v-13.66h-13.61v13.66c0,.84-.45,1.29-1.23,1.29h-6.5c-.84,0-1.29-.45-1.29-1.29v-36.62c0-.84.45-1.29,1.29-1.29h6.5c.78,0,1.23.45,1.23,1.29v15.68h13.61v-15.68c0-.84.45-1.29,1.23-1.29h6.5c.78,0,1.29.45,1.29,1.29v36.62Z"/>
              <path class="cls-18" d="M351.16,108.37c0,.84-.45,1.29-1.23,1.29h-6.5c-.84,0-1.29-.45-1.29-1.29v-36.62c0-.84.45-1.29,1.29-1.29h6.5c.78,0,1.23.45,1.23,1.29v36.62Z"/>
              <path class="cls-18" d="M360.12,109.66c-.78,0-1.29-.45-1.29-1.29v-36.62c0-.84.45-1.29,1.29-1.29h22.79c.78,0,1.29.45,1.29,1.29v4.65c0,.78-.45,1.23-1.29,1.23h-15.06v9.07h11.2c.78,0,1.29.45,1.29,1.29v4.54c0,.78-.5,1.23-1.29,1.23h-11.2v8.74h15.06c.84,0,1.29.45,1.29,1.23v4.65c0,.84-.5,1.29-1.29,1.29h-22.79Z"/>
              <path class="cls-18" d="M414.27,109.66c-1.62,0-2.41-.73-3.36-2.3l-11.7-20.05v21.06c0,.84-.45,1.29-1.23,1.29h-6.5c-.84,0-1.29-.45-1.29-1.29v-36.62c0-.84.45-1.29,1.29-1.29h5.94c1.79,0,2.63,1.23,3.42,2.63l11.59,20.66v-22.01c0-.84.45-1.29,1.29-1.29h6.44c.84,0,1.29.45,1.29,1.29v36.62c0,.84-.45,1.29-1.29,1.29h-5.88Z"/>
              <path class="cls-18" d="M452.4,81.15c-.95.62-1.46.5-1.74.11-.84-1.23-3.25-3.7-7.67-3.64-3.3-.06-5.26,1.46-5.32,3.64.06,7.5,19.99,2.41,19.99,17.36,0,5.54-4.14,11.37-14.9,11.37-10.14,0-14.5-5.21-15.79-7.39-.39-.56-.22-1.34.28-1.74l3.47-3.25c.45-.45,1.29-.67,1.79,0,1.34,1.62,4.76,5.1,10.25,5.1,3.42,0,5.43-1.51,5.43-3.86,0-8.4-20.27-2.18-20.27-17.47,0-6.05,5.15-11.26,14.39-11.26s13.27,4.65,14.5,6.72c.22.39.39,1.06-.5,1.62l-3.92,2.69Z"/>
            </g>
          </g>
        </g>
      </g>
    </g>
  </g>
</svg>